
<svg width="52px" height="52px" viewBox="0 0 52 52" version="1.1" xmlns="http://www.w3.org/2000/svg" xmlns:xlink="http://www.w3.org/1999/xlink">
    <!-- Generator: Sketch 45.2 (43514) - http://www.bohemiancoding.com/sketch -->
    <desc>Created with Sketch.</desc>
    <defs></defs>
    <g id="Page-1" stroke="none" stroke-width="1" fill="none" fill-rule="evenodd">
        <g id="linkedin" fill="#4CB781">
            <g id="Group-2">
                <path d="M1.3,17.8 L11.9,17.8 L11.9,52 L1.3,52 L1.3,17.8 Z M6.6,0.9 C10,0.9 12.8,3.7 12.8,7.1 C12.8,10.5 10,13.3 6.6,13.3 C3.2,13.3 0.4,10.5 0.4,7.1 C0.5,3.6 3.2,0.9 6.6,0.9 L6.6,0.9 Z" id="Shape" fill-rule="nonzero"></path>
                <path d="M18.6,17.8 L28.8,17.8 L28.8,22.5 L28.9,22.5 C30.3,19.8 33.8,17 39,17 C49.7,17 51.7,24.1 51.7,33.3 L51.7,52 L41.1,52 L41.1,35.4 C41.1,31.4 41,26.3 35.6,26.3 C30.1,26.3 29.2,30.6 29.2,35.1 L29.2,52 L18.6,52 L18.6,17.8 L18.6,17.8 Z" id="Shape" fill-rule="nonzero"></path>
            </g>
        </g>
    </g>
</svg>