
<svg width="51px" height="41px" viewBox="0 0 51 41" version="1.1" xmlns="http://www.w3.org/2000/svg" xmlns:xlink="http://www.w3.org/1999/xlink">
    <!-- Generator: Sketch 45.2 (43514) - http://www.bohemiancoding.com/sketch -->
    <desc>Created with Sketch.</desc>
    <defs></defs>
    <g id="Page-1" stroke="none" stroke-width="1" fill="none" fill-rule="evenodd">
        <path d="M50.6,4.9 C48.8,5.7 46.8,6.3 44.7,6.5 C46.8,5.2 48.5,3.2 49.2,0.8 C47.2,2 45,2.8 42.7,3.3 C40.8,1.3 38.1,0 35.2,0 C29.5,0 24.9,4.6 24.9,10.3 C24.9,11.1 25,11.9 25.2,12.6 C16.6,12.2 9,8.1 4,1.8 C3.1,3.3 2.6,5.1 2.6,7 C2.6,10.6 4.4,13.7 7.2,15.6 C5.5,15.5 3.9,15.1 2.5,14.3 L2.5,14.4 C2.5,19.4 6.1,23.6 10.8,24.5 C9.9,24.7 9,24.9 8.1,24.9 C7.4,24.9 6.8,24.8 6.2,24.7 C7.5,28.8 11.3,31.8 15.8,31.9 C12.3,34.7 7.8,36.3 3,36.3 C2.2,36.3 1.3,36.2 0.5,36.2 C5.1,39.1 10.5,40.8 16.3,40.8 C35.3,40.8 45.6,25.1 45.6,11.5 C45.6,11.1 45.6,10.6 45.6,10.2 C47.5,8.8 49.2,7 50.6,4.9 Z" id="Shape" fill="#4CB781" fill-rule="nonzero"></path>
    </g>
</svg>