
<svg width="100px" height="100px" viewBox="0 0 53 51" version="1.1" xmlns="http://www.w3.org/2000/svg" xmlns:xlink="http://www.w3.org/1999/xlink">
    <!-- Generator: Sketch 45.2 (43514) - http://www.bohemiancoding.com/sketch -->
    <desc>Created with Sketch.</desc>
    <defs></defs>
    <g id="Page-1" stroke="none" stroke-width="1" fill="none" fill-rule="evenodd">
        <path d="M26.2,0 C11.7,0 -2.27373675e-13,11.7 -2.27373675e-13,26.2 C-2.27373675e-13,37.8 7.5,47.6 17.9,51 C19.2,51.2 19.7,50.4 19.7,49.7 C19.7,49.1 19.7,47.4 19.7,45.2 C12.4,46.8 10.9,41.7 10.9,41.7 C9.7,38.7 8,37.9 8,37.9 C5.6,36.3 8.2,36.3 8.2,36.3 C10.8,36.5 12.2,39 12.2,39 C14.5,43 18.3,41.8 19.8,41.2 C20,39.5 20.7,38.4 21.5,37.7 C15.7,37 9.6,34.8 9.6,24.8 C9.6,21.9 10.6,19.6 12.3,17.8 C12,17.1 11.1,14.5 12.6,10.9 C12.6,10.9 14.8,10.2 19.8,13.6 C21.9,13 24.1,12.7 26.4,12.7 C28.6,12.7 30.9,13 33,13.6 C38,10.2 40.2,10.9 40.2,10.9 C41.6,14.5 40.7,17.2 40.5,17.8 C42.2,19.6 43.2,22 43.2,24.8 C43.2,34.9 37.1,37.1 31.2,37.7 C32.1,38.5 33,40.1 33,42.5 C33,46 33,48.8 33,49.7 C33,50.4 33.5,51.2 34.8,51 C45.2,47.5 52.7,37.7 52.7,26.2 C52.4,11.8 40.7,0 26.2,0" id="Shape" fill="#4CB781" fill-rule="nonzero"></path>
    </g>
</svg>